# xmcd CD database file
#
# Track frame offsets:
#	150
#	16052
#	37807
#	55366
#	74809
#	90342
#	114450
#	130378
#	143887
#	158341
#
# Disc length: 2361 seconds
#
# Revision: 2
# Processed by: cddbd v1.5.2PL0 Copyright (c) Steve Scherf et al.
# Submitted via: CDex 1.70beta3
#
DISCID=7d09370a
DTITLE=甲斐バンド - GOLD -黄金-
DYEAR=1983
DGENRE=J-Rock
TTITLE0=GOLD
TTITLE1=ボーイッシュ・ガール
TTITLE2=シーズン
TTITLE3=マッスル
TTITLE4=ムーンライト・プリズナー
TTITLE5=MIDNIGHT
TTITLE6=危険な道連れ
TTITLE7=SLEEPY CITY
TTITLE8=胸いっぱいの愛
TTITLE9=射程距離
EXTD=YEAR: 1983
EXTT0=
EXTT1=
EXTT2=
EXTT3=
EXTT4=
EXTT5=
EXTT6=
EXTT7=
EXTT8=
EXTT9=
PLAYORDER=
